<?xml version="1.0" encoding="UTF-8" standalone="no"?>
<svg
   xmlns:dc="http://purl.org/dc/elements/1.1/"
   xmlns:cc="http://creativecommons.org/ns#"
   xmlns:rdf="http://www.w3.org/1999/02/22-rdf-syntax-ns#"
   xmlns:svg="http://www.w3.org/2000/svg"
   xmlns="http://www.w3.org/2000/svg"
   xmlns:sodipodi="http://sodipodi.sourceforge.net/DTD/sodipodi-0.dtd"
   xmlns:inkscape="http://www.inkscape.org/namespaces/inkscape"
   version="1.0"
   width="312.33334"
   height="317.66666"
   viewBox="0 0 238.00002 234.49998"
   preserveAspectRatio="xMidYMid meet"
   id="svg484"
   sodipodi:docname="P.svg"
   inkscape:version="0.92.4 (5da689c313, 2019-01-14)">
  <defs
     id="defs488" />
  <sodipodi:namedview
     pagecolor="#ffffff"
     bordercolor="#666666"
     borderopacity="1"
     objecttolerance="10"
     gridtolerance="10"
     guidetolerance="10"
     inkscape:pageopacity="0"
     inkscape:pageshadow="2"
     inkscape:window-width="1366"
     inkscape:window-height="705"
     id="namedview486"
     showgrid="false"
     units="px"
     inkscape:zoom="1"
     inkscape:cx="334.58022"
     inkscape:cy="141.33334"
     inkscape:window-x="-8"
     inkscape:window-y="-8"
     inkscape:window-maximized="1"
     inkscape:current-layer="svg484" />
  <metadata
     id="metadata250">
Created by potrace 1.16, written by Peter Selinger 2001-2019
<rdf:RDF>
  <cc:Work
     rdf:about="">
    <dc:format>image/svg+xml</dc:format>
    <dc:type
       rdf:resource="http://purl.org/dc/dcmitype/StillImage" />
    <dc:title></dc:title>
  </cc:Work>
</rdf:RDF>
</metadata>
  <g
     transform="matrix(0.0057209,0,0,-0.00555946,0.75,234.41713)"
     id="g482"
     style="fill:#2ca02c;stroke:none;stroke-width:17.73174286">
    <path
       d="m 20714,42108 c -19,-61 -703,-1990 -706,-1994 -3,-2 -487,-16 -1076,-31 -590,-15 -1072,-30 -1072,-33 0,-3 382,-298 849,-655 468,-358 850,-654 850,-660 1,-5 -136,-469 -302,-1030 -167,-561 -300,-1021 -296,-1023 4,-2 403,270 888,603 l 881,606 881,-606 c 485,-333 884,-605 888,-603 4,2 -129,462 -296,1023 -166,561 -303,1025 -302,1030 0,6 382,302 850,660 467,357 849,652 849,655 0,3 -482,18 -1072,33 -589,15 -1073,29 -1076,31 -3,4 -687,1933 -706,1994 -4,12 -11,22 -16,22 -5,0 -12,-10 -16,-22 z m 246,-1674 c 124,-349 228,-640 231,-646 4,-6 260,-16 688,-27 374,-10 683,-20 686,-22 2,-3 -239,-191 -536,-419 -297,-227 -542,-417 -544,-420 -3,-4 83,-304 190,-665 108,-362 194,-659 193,-660 -2,-1 -257,172 -567,386 -310,214 -567,389 -571,389 -4,0 -261,-175 -571,-389 -310,-214 -565,-387 -567,-386 -1,1 85,298 193,660 107,361 193,661 190,665 -2,3 -247,193 -544,420 -297,228 -538,416 -536,419 3,2 312,12 686,22 428,11 684,21 688,27 3,6 107,297 231,646 123,350 227,636 230,636 3,0 107,-286 230,-636 z"
       id="path252"
       style="fill:#2ca02c;stroke-width:17.73174286"
       inkscape:connector-curvature="0" />
    <path
       d="m 16934,41457 c -673,-690 -1161,-1607 -1358,-2553 -81,-392 -110,-684 -110,-1104 0,-372 21,-615 80,-940 238,-1301 960,-2469 2019,-3265 817,-614 1771,-970 2800,-1045 306,-22 701,-10 1030,30 2267,282 4107,2025 4519,4280 59,325 80,568 80,940 0,332 -9,470 -50,759 -140,985 -563,1918 -1213,2676 -93,109 -322,347 -328,341 -2,-2 29,-57 68,-122 149,-244 322,-626 409,-899 220,-693 267,-1435 134,-2135 -195,-1033 -744,-1947 -1564,-2604 -771,-618 -1733,-956 -2720,-956 -1660,0 -3182,950 -3915,2445 -412,842 -540,1780 -369,2715 27,150 86,382 134,535 87,272 259,651 409,899 39,65 70,120 68,122 -2,2 -57,-51 -123,-119 z"
       id="path254"
       style="fill:#2ca02c;stroke-width:17.73174286"
       inkscape:connector-curvature="0" />
    <path
       d="m 14160,39663 c -361,-26 -502,-114 -758,-476 -34,-48 -62,-89 -62,-91 0,-2 23,-17 50,-34 34,-21 50,-38 50,-52 0,-19 5,-20 178,-20 312,1 433,20 589,95 116,57 228,141 334,253 75,78 194,227 244,305 l 17,27 -298,-2 c -165,-1 -319,-3 -344,-5 z"
       id="path256"
       style="fill:#2ca02c;stroke-width:17.73174286"
       inkscape:connector-curvature="0" />
    <path
       d="m 26675,39644 c 50,-79 169,-227 244,-306 106,-112 218,-196 334,-253 156,-75 277,-94 590,-95 172,0 177,1 177,20 0,14 16,31 50,52 28,17 50,32 50,34 0,2 -28,43 -62,91 -149,211 -261,326 -373,385 -146,76 -230,88 -669,95 l -360,6 z"
       id="path258"
       style="fill:#2ca02c;stroke-width:17.73174286"
       inkscape:connector-curvature="0" />
    <path
       d="m 13025,39468 c -11,-7 -95,-47 -186,-89 -228,-105 -301,-157 -361,-254 -57,-93 -93,-245 -100,-425 l -3,-85 35,3 c 76,6 218,34 280,53 166,54 278,140 333,256 l 32,68 3,243 c 2,133 0,242 -5,242 -4,0 -17,-6 -28,-12 z"
       id="path260"
       style="fill:#2ca02c;stroke-width:17.73174286"
       inkscape:connector-curvature="0" />
    <path
       d="m 28402,39239 3,-244 32,-68 c 40,-84 107,-151 199,-199 112,-58 202,-82 416,-112 l 38,-5 -6,77 c -18,264 -61,406 -153,506 -48,52 -140,106 -324,192 -100,47 -188,88 -195,91 -11,5 -13,-38 -10,-238 z"
       id="path262"
       style="fill:#2ca02c;stroke-width:17.73174286"
       inkscape:connector-curvature="0" />
    <path
       d="m 11830,39019 c -201,-105 -279,-157 -365,-243 -135,-137 -155,-202 -155,-513 v -223 l 48,7 c 201,26 382,119 480,245 49,64 106,181 127,263 9,33 20,110 25,170 12,132 13,375 3,375 -5,0 -78,-37 -163,-81 z"
       id="path264"
       style="fill:#2ca02c;stroke-width:17.73174286"
       inkscape:connector-curvature="0" />
    <path
       d="m 29463,38888 c 6,-229 19,-315 64,-426 94,-237 290,-378 576,-415 l 47,-7 v 223 c 0,243 -8,299 -58,391 -35,66 -149,180 -237,238 -69,46 -374,208 -390,208 -4,0 -5,-96 -2,-212 z"
       id="path266"
       style="fill:#2ca02c;stroke-width:17.73174286"
       inkscape:connector-curvature="0" />
    <path
       d="m 13040,38609 c -129,-37 -256,-102 -317,-161 -18,-18 -40,-51 -49,-75 -16,-40 -16,-46 0,-88 28,-72 84,-111 295,-205 l 83,-38 68,28 c 37,15 132,47 211,70 174,51 239,81 286,133 39,44 97,161 108,218 l 7,36 -104,16 c -57,9 -140,28 -184,42 -67,23 -100,27 -224,31 -82,2 -160,-1 -180,-7 z"
       id="path268"
       style="fill:#2ca02c;stroke-width:17.73174286"
       inkscape:connector-curvature="0" />
    <path
       d="m 28110,38611 c -19,-5 -73,-20 -120,-33 -47,-14 -125,-31 -173,-38 l -89,-12 7,-37 c 11,-57 69,-174 108,-218 47,-52 112,-82 286,-133 79,-23 174,-55 211,-70 l 68,-28 83,38 c 211,94 267,133 295,205 16,42 16,48 0,90 -30,77 -145,158 -306,216 -54,19 -88,23 -200,25 -74,2 -151,-1 -170,-5 z"
       id="path270"
       style="fill:#2ca02c;stroke-width:17.73174286"
       inkscape:connector-curvature="0" />
    <path
       d="m 10780,38411 c -171,-36 -326,-117 -429,-223 -86,-90 -136,-176 -172,-300 -18,-62 -22,-106 -26,-292 l -5,-219 78,7 c 321,29 548,150 639,341 54,113 65,191 65,465 v 240 l -32,-1 c -18,0 -71,-8 -118,-18 z"
       id="path272"
       style="fill:#2ca02c;stroke-width:17.73174286"
       inkscape:connector-curvature="0" />
    <path
       d="m 30530,38190 c 0,-274 11,-352 65,-465 91,-191 318,-312 639,-341 l 78,-7 -5,219 c -4,186 -8,230 -26,292 -36,124 -86,210 -172,300 -68,69 -165,133 -266,173 -77,31 -233,69 -285,69 h -28 z"
       id="path274"
       style="fill:#2ca02c;stroke-width:17.73174286"
       inkscape:connector-curvature="0" />
    <path
       d="m 11823,38035 c -197,-36 -352,-117 -400,-208 -21,-41 -13,-124 15,-165 13,-17 48,-43 80,-59 l 57,-28 h 325 c 314,0 327,1 380,22 152,62 248,192 285,386 l 13,67 -342,-1 c -233,-1 -364,-5 -413,-14 z"
       id="path276"
       style="fill:#2ca02c;stroke-width:17.73174286"
       inkscape:connector-curvature="0" />
    <path
       d="m 28895,37983 c 37,-194 133,-324 285,-386 53,-21 66,-22 380,-22 h 325 l 57,28 c 32,16 67,42 80,59 28,41 36,124 15,165 -40,76 -163,150 -327,194 -80,21 -107,23 -456,27 l -372,3 z"
       id="path278"
       style="fill:#2ca02c;stroke-width:17.73174286"
       inkscape:connector-curvature="0" />
    <path
       d="m 9825,37633 c -370,-44 -598,-131 -771,-296 -83,-78 -137,-171 -154,-268 -6,-31 -9,-145 -8,-255 l 3,-199 234,-5 234,-5 -211,-259 -211,-260 60,-38 c 33,-21 68,-52 77,-68 l 17,-30 h 323 c 298,0 327,2 383,20 180,61 322,233 404,490 21,68 57,248 51,257 -1,1 -159,-24 -351,-56 -193,-33 -351,-58 -353,-56 -2,1 87,231 198,510 110,278 200,511 200,516 0,9 -62,10 -125,2 z"
       id="path280"
       style="fill:#2ca02c;stroke-width:17.73174286"
       inkscape:connector-curvature="0" />
    <path
       d="m 31510,37632 c 0,-6 90,-239 200,-517 111,-279 200,-509 198,-510 -2,-2 -160,23 -353,56 -192,32 -350,57 -351,56 -6,-9 30,-189 51,-257 82,-257 224,-429 404,-490 56,-18 85,-20 383,-20 h 323 l 17,30 c 9,16 44,47 77,68 l 60,38 -211,260 -211,259 234,5 234,5 3,199 c 1,110 -2,224 -8,255 -48,264 -355,478 -781,545 -140,22 -269,31 -269,18 z"
       id="path282"
       style="fill:#2ca02c;stroke-width:17.73174286"
       inkscape:connector-curvature="0" />
    <path
       d="m 10599,37380 c -94,-17 -187,-106 -262,-248 -44,-85 -94,-218 -85,-227 2,-2 65,-23 138,-45 165,-50 322,-65 520,-50 203,16 312,57 422,158 57,53 178,203 178,222 0,13 -183,78 -322,114 -165,43 -285,64 -408,71 -52,3 -106,7 -120,9 -14,2 -41,0 -61,-4 z"
       id="path284"
       style="fill:#2ca02c;stroke-width:17.73174286"
       inkscape:connector-curvature="0" />
    <path
       d="m 30704,37379 c -142,-10 -265,-31 -432,-74 -139,-37 -322,-102 -322,-115 0,-19 121,-169 178,-222 110,-101 219,-142 422,-158 198,-15 355,0 520,50 73,22 136,43 138,45 9,9 -41,142 -86,227 -55,106 -122,184 -188,219 -62,33 -93,37 -230,28 z"
       id="path286"
       style="fill:#2ca02c;stroke-width:17.73174286"
       inkscape:connector-curvature="0" />
    <path
       d="m 8048,36556 c -308,-186 -401,-251 -509,-358 -125,-125 -194,-242 -244,-415 -23,-80 -54,-297 -44,-307 3,-3 101,-28 219,-56 118,-28 223,-54 233,-58 16,-6 9,-18 -48,-82 -105,-120 -110,-134 -110,-335 0,-158 2,-173 23,-218 36,-71 82,-94 218,-108 129,-13 308,-6 384,17 181,53 348,198 506,439 66,102 228,395 221,401 -3,3 -211,-15 -464,-40 -252,-25 -464,-46 -471,-46 -7,0 17,30 54,68 142,143 223,264 262,393 34,110 43,243 40,565 l -3,301 z"
       id="path288"
       style="fill:#2ca02c;stroke-width:17.73174286"
       inkscape:connector-curvature="0" />
    <path
       d="m 33140,36408 c 0,-172 5,-352 10,-398 26,-217 102,-359 294,-552 37,-38 61,-68 54,-68 -7,0 -219,21 -471,46 -253,25 -461,43 -464,40 -7,-6 155,-299 221,-401 158,-241 325,-386 506,-439 76,-23 255,-30 384,-17 136,14 182,37 218,108 21,45 23,60 23,218 0,201 -5,215 -110,335 -57,64 -64,76 -48,82 10,4 115,30 233,58 118,28 216,53 219,56 10,10 -21,227 -44,307 -49,170 -117,287 -238,410 -104,104 -220,187 -487,347 -129,77 -250,150 -267,161 l -33,21 z"
       id="path290"
       style="fill:#2ca02c;stroke-width:17.73174286"
       inkscape:connector-curvature="0" />
    <path
       d="m 6533,35155 c -184,-62 -304,-135 -408,-247 -128,-138 -205,-303 -285,-611 l -40,-153 49,-144 48,-145 44,3 c 119,10 271,57 365,113 31,19 87,66 125,106 143,151 213,371 239,751 5,85 10,200 10,258 0,124 7,121 -147,69 z"
       id="path292"
       style="fill:#2ca02c;stroke-width:17.73174286"
       inkscape:connector-curvature="0" />
    <path
       d="m 34780,35083 c 1,-247 26,-490 71,-668 61,-244 215,-425 426,-502 74,-27 174,-49 242,-55 l 44,-3 48,145 49,144 -40,153 c -135,519 -304,728 -695,859 -153,51 -145,55 -145,-73 z"
       id="path294"
       style="fill:#2ca02c;stroke-width:17.73174286"
       inkscape:connector-curvature="0" />
    <path
       d="m 7219,34175 c -304,-95 -604,-200 -685,-240 -159,-78 -326,-317 -326,-466 0,-80 27,-123 101,-158 51,-24 66,-26 181,-25 151,0 250,23 386,89 112,54 189,111 286,213 151,158 256,379 283,595 6,45 4,57 -6,57 -8,-1 -107,-30 -220,-65 z"
       id="path296"
       style="fill:#2ca02c;stroke-width:17.73174286"
       inkscape:connector-curvature="0" />
    <path
       d="m 34015,34183 c 27,-216 132,-437 283,-595 97,-102 174,-159 286,-213 136,-66 235,-89 386,-89 115,-1 130,1 181,25 74,35 101,77 100,159 0,109 -70,239 -197,367 -86,88 -124,107 -403,203 -209,72 -613,200 -632,200 -8,0 -9,-18 -4,-57 z"
       id="path298"
       style="fill:#2ca02c;stroke-width:17.73174286"
       inkscape:connector-curvature="0" />
    <path
       d="m 10110,33520 c 0,-579 -1,-612 -17,-605 -103,41 -485,185 -493,185 -6,0 -11,-100 -12,-269 l -3,-269 -258,99 c -142,54 -263,99 -268,99 -5,0 -9,-110 -9,-270 0,-148 -1,-270 -3,-270 -1,0 -119,45 -262,100 -143,55 -263,100 -267,100 -5,0 -7,-3347 -6,-7437 l 3,-7437 5040,-1933 c 2772,-1063 5047,-1931 5055,-1930 8,1 21,21 30,44 8,23 18,44 21,47 3,3 30,-28 60,-69 30,-41 58,-75 63,-75 4,0 58,35 120,79 599,424 1084,648 1529,706 65,8 156,15 202,15 h 84 l 4,48 3,47 2,-47 2,-48 h 83 c 488,-1 1090,-252 1754,-733 51,-37 97,-67 102,-67 6,0 34,34 63,75 29,41 55,75 58,75 3,0 13,-23 23,-51 14,-39 23,-50 37,-47 10,2 2284,872 5054,1933 l 5036,1930 v 7438 c 0,4090 -2,7437 -5,7437 -3,0 -123,-45 -266,-100 -143,-55 -262,-100 -265,-100 -2,0 -4,122 -4,270 0,149 -3,270 -8,270 -4,0 -124,-45 -267,-100 -143,-55 -261,-100 -262,-100 -2,0 -3,122 -3,271 v 271 l -22,-6 c -13,-3 -126,-46 -253,-94 l -230,-89 -3,609 -2,609 -23,-7 c -12,-4 -2398,-918 -5302,-2031 -2904,-1113 -5287,-2025 -5295,-2026 -10,0 -8601,3288 -10602,4058 -17,7 -18,-26 -18,-605 z m 3848,-1141 c 1967,-755 4266,-1636 5107,-1958 l 1530,-587 3,-102 3,-102 h 129 130 v 103 102 l 5108,1958 c 2809,1076 5110,1957 5115,1957 4,0 7,-3375 7,-7499 v -7500 l -77,-29 C 28460,17738 20924,14855 20898,14852 l -38,-4 v 146 146 h -130 -130 v -145 -145 h -32 c -19,1 -2255,853 -5113,1949 l -5080,1948 -3,7501 c -1,4126 0,7502 3,7502 3,0 1615,-617 3583,-1371 z m -3928,282 75,-28 5,-7033 5,-7032 1585,-608 c 4116,-1577 8277,-3173 8300,-3182 22,-9 9,-15 -115,-57 -77,-27 -156,-55 -175,-63 l -35,-15 -4910,1882 -4910,1883 -3,7161 -2,7161 52,-20 c 29,-11 87,-33 128,-49 z M 31588,18407 c -7,-5 -2218,-854 -4913,-1887 -4668,-1789 -4901,-1878 -4926,-1864 -15,7 -94,36 -176,63 -81,27 -141,52 -133,55 8,3 2229,854 4935,1892 2706,1037 4932,1891 4947,1896 l 28,10 2,7031 3,7031 120,47 120,46 3,-7156 c 2,-5769 0,-7158 -10,-7164 z m -22103,13914 100,-38 3,-7027 c 2,-5608 5,-7028 15,-7031 102,-36 9724,-3728 9729,-3733 4,-4 -55,-42 -130,-85 l -137,-78 -355,136 c -195,74 -2389,915 -4875,1868 l -4520,1733 -3,7162 -2,7162 37,-15 c 21,-8 83,-32 138,-54 z m 22655,-7093 v -7163 l -4875,-1868 -4875,-1868 -113,64 c -61,36 -125,72 -142,80 -28,14 -29,16 -10,23 11,5 2205,846 4875,1870 l 4855,1861 5,7028 5,7027 135,53 c 74,29 136,53 138,54 1,1 2,-3222 2,-7161 z m -23090,-314 5,-7027 4833,-1852 c 2658,-1019 4849,-1860 4868,-1867 l 36,-14 -122,-88 -122,-88 -4889,1874 -4888,1873 -1,7161 v 7162 l 138,-53 137,-53 z m 23630,-31 v -7158 l -4877,-1870 c -2683,-1028 -4884,-1869 -4893,-1869 -8,0 -68,38 -133,84 -106,76 -116,85 -95,93 13,4 2203,844 4868,1865 l 4845,1858 3,7026 2,7026 98,37 c 53,21 111,44 127,51 17,7 36,13 43,13 9,1 12,-1437 12,-7156 z"
       id="path300"
       style="fill:#2ca02c;stroke-width:17.73174286"
       inkscape:connector-curvature="0" />
    <path
       d="m 21894,29031 -40,-18 -11,-116 c -13,-130 -39,-203 -85,-242 -31,-26 -67,-32 -99,-15 -24,13 -62,88 -84,165 -9,33 -18,65 -20,72 -3,8 -13,9 -39,1 -33,-11 -35,-13 -56,-102 -43,-180 -98,-288 -164,-320 -37,-18 -38,-18 -64,1 -34,25 -51,84 -59,196 l -6,88 -41,-7 c -23,-3 -44,-11 -47,-16 -3,-5 -18,-63 -34,-129 -22,-97 -27,-135 -22,-197 8,-119 57,-203 136,-234 47,-18 157,-12 205,11 55,27 130,101 152,150 l 17,39 41,-18 c 162,-71 300,-2 372,186 38,100 45,278 15,418 -12,55 -22,101 -24,102 -1,2 -21,-5 -43,-15 z"
       id="path302"
       style="fill:#2ca02c;stroke-width:17.73174286"
       inkscape:connector-curvature="0" />
    <path
       d="m 20600,28635 v -255 h 130 130 v 255 255 h -130 -130 z"
       id="path304"
       style="fill:#2ca02c;stroke-width:17.73174286"
       inkscape:connector-curvature="0" />
    <path
       d="m 21434,27742 -111,-127 39,-680 c 47,-830 50,-989 24,-1064 -23,-67 -77,-122 -136,-140 -25,-7 -107,-17 -182,-21 -153,-9 -230,1 -324,44 -83,38 -120,71 -223,201 -108,137 -140,169 -192,196 -58,29 -116,25 -172,-12 -26,-17 -123,-111 -217,-209 -208,-217 -186,-207 -500,-220 -118,-5 -253,-14 -300,-20 -47,-5 -152,-10 -234,-10 h -149 l 52,52 c 101,101 202,286 237,434 37,159 -24,510 -100,573 -62,52 -211,-125 -416,-493 -130,-235 -192,-371 -214,-478 -5,-24 -12,-27 -73,-37 -162,-26 -252,-30 -458,-21 -116,5 -240,16 -276,24 -150,33 -263,124 -333,267 l -42,87 -31,-13 c -41,-17 -63,-51 -63,-96 0,-35 -2,-37 -37,-44 -48,-9 -191,-63 -269,-103 -74,-38 -118,-82 -196,-196 -112,-167 -168,-303 -168,-406 0,-68 148,-1682 155,-1688 13,-13 105,248 105,297 0,25 -25,368 -54,761 l -54,715 24,32 c 30,40 129,89 214,107 l 65,13 12,-64 c 30,-158 131,-341 217,-394 65,-40 172,-11 219,59 35,52 57,131 64,238 l 6,91 115,-58 c 63,-32 136,-63 164,-68 28,-6 168,-11 323,-11 h 275 v -35 c 0,-122 76,-349 171,-515 169,-293 403,-321 533,-63 14,28 38,91 53,140 24,80 27,103 27,253 0,129 -4,175 -17,210 -9,24 -15,45 -14,46 1,2 67,-6 147,-16 103,-14 209,-19 364,-20 h 218 l 94,81 95,80 46,-40 c 86,-76 398,-211 487,-211 48,0 98,45 127,116 13,30 28,53 33,50 6,-2 47,-19 91,-38 l 80,-33 h 235 c 228,0 236,1 280,24 106,56 185,152 244,298 l 32,81 32,-68 c 39,-85 136,-215 196,-264 86,-70 108,-76 321,-76 272,0 405,25 574,108 88,42 176,105 247,174 l 52,50 65,-55 c 140,-118 335,-231 456,-262 53,-13 107,-16 320,-13 l 257,3 58,35 c 141,85 272,269 317,445 28,111 28,299 0,410 -21,80 -87,226 -106,232 -5,1 -40,-74 -76,-169 l -66,-172 19,-32 c 28,-48 78,-191 78,-224 0,-16 -10,-40 -22,-54 l -23,-26 h -337 c -362,-1 -429,5 -589,56 -112,35 -113,40 -23,114 90,75 118,114 140,200 42,164 -22,287 -190,366 -185,86 -398,84 -541,-7 -66,-42 -178,-151 -216,-211 -34,-53 -74,-168 -62,-178 5,-4 44,-22 88,-40 158,-64 265,-127 265,-155 0,-40 -100,-79 -309,-121 -112,-23 -143,-25 -325,-22 -197,3 -202,4 -258,31 -85,42 -157,104 -179,154 -36,85 -48,211 -98,1048 -29,468 -55,867 -59,887 l -7,38 z m -2599,-1488 c 50,-76 70,-216 40,-274 -20,-39 -83,-81 -218,-145 -111,-53 -187,-77 -187,-58 0,45 86,228 165,349 96,148 160,189 200,128 z m 1428,-302 c 41,-45 137,-304 137,-369 0,-38 -40,-40 -115,-5 -133,63 -235,147 -235,195 0,57 55,136 125,179 38,23 67,23 88,0 z m -1718,-724 c 76,-25 197,-89 253,-135 53,-43 91,-99 102,-150 8,-32 6,-41 -10,-58 -41,-41 -196,-35 -282,12 -60,33 -138,114 -171,179 -21,41 -47,140 -47,176 0,13 83,0 155,-24 z"
       id="path306"
       style="fill:#2ca02c;stroke-width:17.73174286"
       inkscape:connector-curvature="0" />
    <path
       d="m 18605,27661 c -57,-26 -100,-65 -146,-133 -64,-93 -79,-134 -79,-215 0,-86 10,-116 53,-155 l 32,-30 -40,-35 c -22,-19 -62,-48 -90,-64 -65,-37 -188,-130 -193,-146 -10,-35 195,19 328,84 111,55 219,152 297,266 63,91 73,121 80,233 7,107 -5,152 -48,189 -26,21 -41,25 -92,25 -38,0 -77,-7 -102,-19 z m 61,-205 c 37,-37 44,-49 44,-83 0,-52 -38,-98 -73,-87 -82,25 -131,81 -125,144 2,28 10,38 38,52 52,26 68,23 116,-26 z"
       id="path308"
       style="fill:#2ca02c;stroke-width:17.73174286"
       inkscape:connector-curvature="0" />
    <path
       d="m 20600,27385 v -255 h 130 130 v 255 255 h -130 -130 z"
       id="path310"
       style="fill:#2ca02c;stroke-width:17.73174286"
       inkscape:connector-curvature="0" />
    <path
       d="m 22912,27340 c -241,-91 -376,-148 -400,-167 -50,-40 -82,-101 -89,-170 -6,-52 -5,-56 13,-51 47,13 789,310 802,321 40,32 82,208 51,206 -8,0 -177,-63 -377,-139 z"
       id="path312"
       style="fill:#2ca02c;stroke-width:17.73174286"
       inkscape:connector-curvature="0" />
    <path
       d="m 24253,27360 c -111,-50 -223,-232 -223,-362 0,-53 27,-114 63,-142 l 30,-24 -38,-33 c -21,-19 -68,-53 -106,-75 -37,-23 -95,-63 -129,-89 -82,-63 -70,-75 49,-47 243,57 404,167 539,368 50,75 64,125 65,239 2,97 -12,139 -55,169 -32,23 -142,21 -195,-4 z m 58,-187 c 61,-52 73,-127 26,-171 -20,-19 -25,-19 -61,-7 -58,20 -89,47 -103,89 -17,50 -8,81 30,100 46,22 71,20 108,-11 z"
       id="path314"
       style="fill:#2ca02c;stroke-width:17.73174286"
       inkscape:connector-curvature="0" />
    <path
       d="m 20195,27195 c -59,-22 -107,-66 -159,-144 -59,-88 -76,-138 -76,-218 0,-75 19,-124 61,-154 l 29,-20 -46,-40 c -25,-22 -63,-48 -83,-58 -54,-28 -201,-139 -201,-152 0,-29 212,27 330,86 124,63 203,133 303,271 55,76 69,118 74,224 9,161 -22,212 -130,217 -37,1 -78,-4 -102,-12 z m 58,-215 c 44,-47 51,-100 16,-144 -25,-32 -33,-32 -96,-1 -90,45 -113,139 -43,177 46,24 76,17 123,-32 z"
       id="path316"
       style="fill:#2ca02c;stroke-width:17.73174286"
       inkscape:connector-curvature="0" />
    <path
       d="m 25130,27006 c -195,-73 -369,-140 -386,-149 -44,-23 -98,-89 -112,-136 -15,-47 -16,-111 -2,-111 25,0 680,264 721,291 65,42 125,109 138,155 13,45 14,84 4,83 -5,0 -168,-60 -363,-133 z"
       id="path318"
       style="fill:#2ca02c;stroke-width:17.73174286"
       inkscape:connector-curvature="0" />
    <path
       d="m 17075,27121 c -76,-19 -144,-77 -204,-175 -46,-77 -60,-121 -61,-194 0,-75 19,-123 62,-154 l 30,-21 -38,-34 c -22,-18 -59,-45 -84,-60 -77,-46 -210,-144 -210,-155 0,-18 98,-2 203,32 174,58 296,145 402,285 84,112 98,150 102,280 4,98 2,114 -17,143 -33,53 -102,73 -185,53 z m 26,-220 c 32,-32 39,-46 39,-78 0,-44 -30,-93 -58,-93 -32,0 -104,43 -123,74 -42,69 -8,136 69,136 27,0 43,-9 73,-39 z"
       id="path320"
       style="fill:#2ca02c;stroke-width:17.73174286"
       inkscape:connector-curvature="0" />
    <path
       d="m 20600,26135 v -255 h 130 130 v 255 255 h -130 -130 z"
       id="path322"
       style="fill:#2ca02c;stroke-width:17.73174286"
       inkscape:connector-curvature="0" />
    <path
       d="m 25020,26166 c -140,-75 -275,-309 -295,-511 -12,-129 23,-198 124,-246 40,-19 64,-22 181,-23 74,-1 154,2 178,7 l 42,7 v -74 c 0,-161 -24,-207 -180,-344 -361,-318 -764,-414 -1328,-316 -51,9 -96,14 -99,10 -10,-10 45,-63 131,-128 94,-70 232,-139 336,-168 86,-23 286,-44 345,-35 195,29 337,86 482,194 76,57 213,194 213,214 0,4 12,21 28,38 29,31 53,76 125,229 58,122 82,197 112,346 40,198 30,356 -35,519 -30,74 -68,152 -85,172 -5,6 -27,31 -48,56 -26,31 -52,50 -84,61 -63,22 -91,20 -143,-8 z"
       id="path324"
       style="fill:#2ca02c;stroke-width:17.73174286"
       inkscape:connector-curvature="0" />
    <path
       d="m 20600,24885 v -255 h 130 130 v 255 255 h -130 -130 z"
       id="path326"
       style="fill:#2ca02c;stroke-width:17.73174286"
       inkscape:connector-curvature="0" />
    <path
       d="m 23380,24955 -95,-95 100,-100 100,-100 95,95 95,95 95,-95 95,-95 98,98 97,97 -100,100 -100,100 -95,-95 -95,-95 -93,93 c -51,50 -95,92 -97,92 -3,0 -48,-43 -100,-95 z"
       id="path328"
       style="fill:#2ca02c;stroke-width:17.73174286"
       inkscape:connector-curvature="0" />
    <path
       d="m 21655,24866 c -192,-73 -369,-142 -392,-154 -51,-27 -90,-76 -109,-138 -16,-54 -18,-104 -5,-104 20,0 777,301 801,318 14,10 33,35 43,55 20,40 36,157 21,157 -5,-1 -166,-61 -359,-134 z"
       id="path330"
       style="fill:#2ca02c;stroke-width:17.73174286"
       inkscape:connector-curvature="0" />
    <path
       d="m 20600,23635 v -255 h 130 130 v 255 255 h -130 -130 z"
       id="path332"
       style="fill:#2ca02c;stroke-width:17.73174286"
       inkscape:connector-curvature="0" />
    <path
       d="m 27231,23865 c -164,-43 -173,-55 -167,-229 3,-103 7,-131 22,-147 22,-25 32,-24 169,11 112,29 199,38 209,22 13,-21 -73,-106 -187,-184 -67,-46 -136,-98 -154,-116 -56,-57 -36,-122 37,-122 41,0 277,73 341,105 44,23 106,82 129,124 18,34 49,192 56,285 6,68 3,94 -10,130 -51,132 -221,179 -445,121 z"
       id="path334"
       style="fill:#2ca02c;stroke-width:17.73174286"
       inkscape:connector-curvature="0" />
    <path
       d="m 27780,23334 c -14,-14 -42,-37 -62,-50 -20,-13 -64,-48 -99,-79 -34,-30 -73,-58 -85,-61 -13,-4 -24,-10 -24,-15 0,-12 -64,-70 -97,-87 -13,-7 -33,-22 -43,-32 -11,-11 -26,-17 -33,-14 -8,3 -18,-5 -24,-18 -6,-13 -34,-41 -63,-63 -29,-22 -66,-55 -84,-73 -18,-18 -44,-41 -59,-51 -15,-9 -57,-45 -94,-78 -38,-34 -90,-80 -118,-104 -150,-128 -424,-389 -628,-599 -62,-63 -147,-150 -189,-192 -43,-43 -78,-80 -78,-83 0,-3 -40,-46 -89,-96 l -89,-91 -16,-88 c -9,-48 -16,-97 -16,-108 0,-12 -9,-58 -20,-104 -27,-110 -36,-282 -20,-376 9,-58 19,-81 46,-114 19,-22 39,-49 45,-59 5,-11 15,-19 22,-19 7,0 39,-24 72,-53 33,-29 80,-61 105,-71 25,-10 65,-28 89,-42 23,-13 80,-32 125,-43 313,-75 545,-234 690,-476 37,-62 44,-85 25,-85 -6,0 -28,-13 -48,-28 -41,-33 -174,-106 -211,-117 -14,-4 -47,-18 -75,-30 -120,-55 -184,-77 -235,-83 -30,-3 -61,-11 -68,-19 -8,-8 -37,-13 -76,-13 -112,0 -187,54 -251,180 -31,61 -50,79 -81,80 -32,0 -52,-30 -78,-112 -29,-94 -80,-171 -161,-246 -77,-70 -158,-120 -244,-149 -84,-29 -135,-29 -191,0 -73,36 -105,101 -119,237 l -6,65 -40,3 -41,3 -33,-66 c -18,-36 -38,-68 -45,-71 -8,-3 -13,-16 -13,-29 0,-32 -34,-78 -115,-157 -37,-36 -68,-71 -68,-76 0,-5 -24,-30 -52,-56 -29,-25 -60,-52 -68,-60 -27,-25 -147,-102 -181,-116 -18,-8 -42,-23 -52,-33 -10,-10 -67,-41 -125,-69 -217,-103 -411,-162 -672,-204 -147,-23 -431,-16 -545,15 -220,58 -343,176 -390,373 -9,40 -15,115 -15,205 0,87 -5,152 -12,168 -14,30 -51,42 -82,26 -30,-16 -68,-119 -75,-205 -11,-125 -6,-408 8,-466 21,-92 63,-224 76,-240 7,-8 20,-29 29,-47 28,-56 132,-173 153,-173 7,0 16,-6 20,-12 10,-17 96,-58 153,-75 88,-26 266,-48 380,-47 204,1 361,26 605,96 231,65 374,120 503,193 44,25 83,45 87,45 3,0 21,11 39,25 18,14 40,25 49,25 10,0 17,4 17,9 0,4 17,20 38,35 20,14 64,48 97,76 33,27 66,49 73,50 6,0 12,6 12,13 0,6 29,42 63,79 35,36 72,83 83,103 10,21 29,44 42,53 14,9 21,21 17,31 -3,8 17,-9 44,-37 78,-81 191,-122 336,-122 206,1 382,98 507,282 18,26 36,48 40,48 3,0 18,-13 31,-30 14,-16 33,-30 42,-30 8,0 18,-7 21,-15 4,-10 13,-13 24,-10 10,3 36,-2 57,-11 52,-23 136,-19 258,12 55,15 118,30 140,35 87,21 204,64 290,107 73,37 108,64 180,137 108,108 154,191 188,341 l 22,99 70,-53 c 90,-67 248,-145 350,-172 154,-41 388,-36 540,13 53,17 188,87 182,94 -3,3 9,19 27,37 33,31 126,160 126,175 0,4 9,26 20,50 32,64 58,159 65,231 4,36 9,72 12,80 10,28 4,185 -11,275 -14,92 -22,117 -71,240 -27,66 -52,131 -129,332 -19,49 -57,151 -86,228 -57,154 -70,189 -107,285 -14,36 -48,126 -74,200 -27,74 -55,146 -63,160 -8,14 -19,45 -26,69 -6,24 -22,67 -34,95 -13,28 -31,76 -40,106 -10,30 -23,66 -30,80 -8,14 -25,59 -39,100 -24,69 -45,124 -66,175 -5,11 -15,35 -21,53 -12,32 -14,33 -53,26 -48,-8 -100,-54 -91,-78 3,-9 2,-22 -4,-29 -5,-6 -13,-28 -17,-47 -4,-19 -16,-53 -25,-75 -54,-122 -52,-106 -21,-192 45,-121 130,-336 141,-355 5,-10 10,-26 10,-36 0,-10 4,-22 8,-27 5,-6 18,-35 30,-65 60,-159 95,-249 112,-285 9,-22 43,-107 74,-190 32,-82 63,-163 71,-180 7,-16 34,-84 60,-150 26,-66 53,-133 61,-150 7,-16 24,-59 37,-95 38,-103 106,-273 117,-292 6,-10 10,-23 10,-30 0,-7 7,-26 15,-42 14,-26 13,-32 -12,-80 -15,-28 -59,-83 -98,-122 -110,-112 -229,-158 -401,-157 -70,1 -101,6 -137,22 -25,12 -55,21 -66,21 -11,0 -26,6 -33,13 -7,7 -42,28 -78,46 -67,33 -106,61 -225,162 -151,127 -167,139 -175,139 -5,0 -34,20 -64,45 -31,25 -60,45 -65,45 -4,0 -44,23 -87,52 -44,28 -114,66 -157,84 -43,18 -94,42 -113,53 -19,12 -43,21 -53,21 -9,0 -21,4 -26,9 -6,4 -32,14 -60,20 -27,7 -65,21 -83,32 -18,10 -47,19 -63,19 -16,0 -77,23 -134,50 -80,38 -121,66 -175,116 -38,37 -70,71 -70,76 0,13 110,141 136,157 12,8 27,24 32,35 5,12 61,75 124,141 63,66 159,168 212,227 53,59 101,108 106,110 5,2 100,91 211,198 111,107 216,205 235,218 19,12 34,26 34,30 0,5 30,33 67,63 37,30 83,70 104,89 20,19 76,67 124,105 48,39 110,92 138,118 28,27 64,55 80,63 15,8 38,24 50,35 12,11 36,33 52,48 17,15 64,52 105,81 41,29 79,57 83,60 7,6 21,253 22,395 v 50 l -45,3 c -39,2 -49,-1 -70,-24 z"
       id="path336"
       style="fill:#2ca02c;stroke-width:17.73174286"
       inkscape:connector-curvature="0" />
    <path
       d="m 28159,22863 c -42,-94 -47,-104 -54,-133 -4,-14 -13,-38 -20,-55 -21,-47 -45,-124 -45,-144 0,-27 87,-266 165,-451 36,-87 73,-180 129,-325 25,-66 55,-140 66,-165 11,-25 36,-88 56,-140 35,-94 104,-272 170,-441 19,-48 34,-90 34,-94 0,-4 7,-21 15,-38 14,-30 38,-97 142,-392 22,-60 37,-119 35,-129 -2,-10 3,-23 11,-27 8,-5 27,-48 42,-96 15,-49 41,-128 56,-176 16,-49 29,-111 29,-138 0,-27 2,-49 5,-49 3,0 23,12 45,26 61,41 82,82 96,193 3,24 10,55 15,68 36,95 -36,529 -118,713 -11,25 -31,74 -43,110 -12,36 -40,109 -61,163 -22,53 -39,102 -39,107 0,6 -9,29 -20,53 -10,23 -29,71 -40,107 -12,36 -29,81 -38,100 -9,19 -30,76 -48,125 -60,167 -124,340 -138,370 -7,17 -26,68 -41,115 -15,47 -33,96 -40,110 -21,40 -55,128 -55,140 0,6 -8,30 -19,53 -10,23 -33,83 -50,132 -18,50 -43,115 -55,145 -13,30 -30,80 -39,110 -25,85 -51,120 -87,120 -29,0 -34,-5 -61,-67 z"
       id="path338"
       style="fill:#2ca02c;stroke-width:17.73174286"
       inkscape:connector-curvature="0" />
    <path
       d="m 12928,22755 c -391,-105 -445,-124 -485,-167 -25,-27 -105,-201 -94,-206 17,-6 857,221 883,239 36,26 75,93 99,171 10,35 19,64 19,66 0,8 -77,-10 -422,-103 z"
       id="path340"
       style="fill:#2ca02c;stroke-width:17.73174286"
       inkscape:connector-curvature="0" />
    <path
       d="m 15308,22719 c -18,-10 -120,-178 -132,-215 -12,-40 22,-64 144,-101 62,-19 127,-44 143,-55 l 30,-22 -44,-19 c -29,-13 -86,-22 -169,-29 -188,-14 -206,-17 -235,-40 -20,-15 -25,-28 -23,-51 4,-44 40,-62 199,-98 248,-57 315,-31 477,183 114,151 92,264 -72,370 -100,65 -269,106 -318,77 z"
       id="path342"
       style="fill:#2ca02c;stroke-width:17.73174286"
       inkscape:connector-curvature="0" />
    <path
       d="m 20600,22385 v -255 h 130 130 v 255 255 h -130 -130 z"
       id="path344"
       style="fill:#2ca02c;stroke-width:17.73174286"
       inkscape:connector-curvature="0" />
    <path
       d="m 17234,22360 c -22,-9 -144,-207 -144,-233 0,-34 37,-57 138,-86 101,-29 162,-57 169,-76 7,-23 -93,-47 -237,-56 -155,-10 -205,-25 -219,-61 -21,-58 18,-82 194,-124 190,-45 269,-35 355,42 49,45 152,170 173,210 41,81 24,174 -43,241 -52,53 -160,109 -256,133 -84,22 -99,23 -130,10 z"
       id="path346"
       style="fill:#2ca02c;stroke-width:17.73174286"
       inkscape:connector-curvature="0" />
    <path
       d="m 12551,22236 c -7,-8 -75,-51 -151,-96 l -139,-81 25,-67 c 32,-85 75,-162 132,-234 38,-49 47,-56 64,-47 10,5 68,39 129,75 61,35 112,64 114,64 2,0 18,-29 35,-64 32,-64 111,-170 141,-189 12,-8 54,14 185,93 93,57 171,105 173,106 2,2 -24,40 -58,85 -34,44 -71,100 -83,123 -32,64 -57,95 -89,112 -28,14 -31,13 -62,-10 -39,-29 -186,-116 -196,-116 -10,0 -71,91 -101,151 -27,54 -47,77 -81,95 -23,11 -29,11 -38,0 z"
       id="path348"
       style="fill:#2ca02c;stroke-width:17.73174286"
       inkscape:connector-curvature="0" />
    <path
       d="m 16717,21794 c -4,-4 -42,-11 -84,-15 -139,-14 -247,-28 -293,-37 -25,-5 -70,-8 -100,-7 -30,1 -69,-4 -85,-11 -17,-7 -55,-15 -85,-17 -30,-3 -75,-10 -100,-16 -25,-6 -76,-15 -115,-20 -38,-5 -95,-15 -125,-20 -30,-6 -73,-13 -95,-16 -22,-3 -53,-9 -70,-15 -16,-5 -68,-16 -115,-25 -149,-28 -475,-107 -706,-171 -67,-19 -130,-34 -141,-34 -10,0 -24,-5 -30,-11 -6,-6 -37,-16 -69,-24 -148,-34 -163,-40 -186,-70 -29,-37 -68,-83 -134,-154 -28,-31 -72,-82 -97,-113 -50,-62 -138,-231 -138,-263 1,-58 15,-141 26,-150 7,-5 19,-35 26,-65 8,-30 25,-70 38,-90 14,-19 40,-57 59,-85 18,-27 66,-83 106,-125 93,-98 157,-189 205,-292 55,-117 72,-185 78,-323 l 5,-120 -115,-3 c -67,-2 -140,1 -174,9 -32,6 -65,12 -73,11 -29,-2 -100,21 -100,32 0,6 -39,24 -88,39 -154,50 -297,123 -330,168 -7,10 -18,24 -26,31 -25,25 -39,63 -45,117 -5,48 -10,57 -38,74 l -32,18 -91,-55 c -126,-76 -202,-100 -315,-100 -99,0 -186,19 -255,54 -98,50 -220,200 -206,254 3,13 -1,31 -8,41 -15,20 -13,111 3,200 5,28 19,113 31,190 11,77 25,157 31,177 5,21 12,61 15,90 3,29 12,91 19,138 8,47 17,101 20,120 3,19 12,73 19,120 8,47 20,119 26,160 6,41 13,89 16,106 4,27 1,33 -21,38 -14,4 -25,11 -25,16 0,6 -9,10 -19,10 -25,0 -81,-32 -81,-46 0,-6 -33,-41 -72,-78 -40,-36 -76,-70 -80,-74 -4,-4 -20,-22 -35,-41 -25,-31 -28,-43 -34,-160 -6,-115 -12,-166 -25,-228 -5,-24 0,-23 -134,-26 -36,-1 -70,-7 -76,-13 -7,-6 -52,-16 -100,-23 -49,-7 -96,-16 -104,-19 -8,-3 -17,-6 -20,-7 -3,-1 -22,-9 -42,-18 -21,-10 -44,-17 -52,-17 -8,0 -17,-4 -20,-9 -6,-8 -107,-71 -131,-80 -17,-7 -65,-64 -65,-77 0,-7 -11,-21 -25,-32 -14,-11 -25,-25 -25,-31 0,-7 -7,-22 -15,-35 -20,-29 -29,-103 -21,-159 14,-95 99,-173 230,-211 31,-9 56,-20 56,-25 0,-4 24,-8 53,-8 146,-1 353,-17 359,-27 4,-6 8,-35 8,-64 0,-78 27,-187 67,-272 38,-78 120,-171 198,-222 62,-41 191,-97 288,-124 88,-25 107,-24 107,0 0,8 17,16 43,19 24,3 51,9 60,13 15,5 17,-1 17,-47 0,-66 19,-138 52,-203 28,-55 127,-174 146,-175 6,-1 12,-5 12,-9 0,-5 18,-17 41,-27 40,-19 41,-19 86,6 62,33 164,128 203,189 34,53 41,58 58,37 6,-7 34,-19 62,-27 27,-7 50,-17 50,-21 0,-9 129,-51 215,-70 33,-7 112,-13 175,-13 92,-1 130,4 190,22 102,32 192,87 272,168 37,37 69,66 71,63 2,-2 14,-29 26,-60 60,-150 190,-317 315,-402 128,-87 255,-133 441,-159 90,-13 605,-16 762,-5 40,3 86,2 103,-3 16,-5 30,-5 30,0 0,16 288,-1 429,-26 47,-9 113,-20 146,-25 75,-12 321,-95 357,-120 29,-21 48,-24 48,-9 0,6 26,39 58,73 31,34 74,83 96,109 21,26 43,46 49,45 6,-1 13,7 15,18 2,11 13,30 23,43 10,13 15,31 12,40 -9,26 -56,67 -94,82 -19,7 -41,19 -50,27 -8,7 -19,13 -23,13 -14,0 -426,209 -436,221 -3,3 -21,11 -40,18 -19,7 -53,23 -75,36 -22,14 -51,29 -64,35 -13,6 -36,19 -52,30 -15,11 -58,36 -96,55 -59,30 -129,71 -225,132 -32,21 -37,43 -9,43 10,0 21,6 24,13 3,7 37,21 76,30 39,10 87,27 107,37 19,11 43,20 54,20 11,0 20,4 20,8 0,4 30,25 68,47 37,21 78,48 91,59 72,63 129,125 141,156 8,19 20,41 27,48 7,7 13,20 13,28 0,8 9,35 20,59 46,101 109,342 130,500 27,202 36,234 69,264 17,15 31,32 31,36 0,5 6,16 14,24 11,12 15,53 16,166 4,279 4,278 -30,303 l -30,23 -148,-151 c -163,-167 -154,-151 -166,-313 -3,-32 -8,-67 -11,-78 -4,-10 -13,-74 -20,-142 -27,-234 -45,-372 -60,-444 -8,-40 -15,-80 -15,-89 0,-9 -7,-22 -16,-29 -13,-9 -14,-15 -4,-31 9,-15 9,-29 1,-60 -10,-38 -16,-44 -79,-72 -161,-72 -313,-104 -492,-104 -134,0 -248,16 -395,57 -105,29 -105,29 -105,11 0,-8 -7,-16 -15,-20 -8,-3 -15,-10 -15,-16 0,-10 -74,-98 -175,-208 -47,-53 -60,-106 -27,-114 9,-3 64,-36 120,-74 57,-38 111,-73 120,-79 10,-5 33,-23 52,-38 50,-40 50,-40 103,-70 41,-25 150,-102 197,-140 8,-7 32,-23 53,-36 20,-12 37,-25 37,-27 0,-2 -42,-1 -92,2 -51,3 -111,5 -133,3 -223,-14 -564,28 -670,83 -55,29 -155,108 -155,123 0,8 -11,22 -25,31 -13,9 -27,26 -31,37 -4,12 -19,40 -34,62 -26,38 -110,235 -110,258 0,15 -45,130 -81,204 -16,35 -29,69 -29,77 0,8 -5,18 -10,21 -6,4 -30,46 -54,93 -24,48 -58,105 -76,127 -18,22 -44,60 -58,84 -14,25 -48,68 -74,96 -26,28 -61,70 -78,93 -16,23 -34,42 -39,42 -19,0 -125,176 -147,247 -32,99 -31,110 9,118 17,4 45,14 60,22 16,8 50,18 75,23 48,9 135,35 162,49 8,5 51,16 95,26 44,9 96,23 115,30 72,28 215,67 249,70 20,1 50,7 66,13 17,5 66,18 110,27 44,9 125,28 180,42 55,14 125,29 155,33 30,4 105,17 165,29 117,23 226,41 395,65 58,8 137,20 175,25 39,6 117,16 175,22 l 105,12 105,159 c 58,88 106,165 108,171 1,7 -14,22 -33,35 -36,23 -47,26 -58,16 z m -4430,-1207 c 1,-2 0,-27 -4,-56 l -6,-52 -51,6 c -70,8 -226,48 -226,57 0,5 -8,8 -17,8 -16,0 -16,1 -1,16 20,20 108,30 222,26 44,-1 81,-4 83,-5 z"
       id="path350"
       style="fill:#2ca02c;stroke-width:17.73174286"
       inkscape:connector-curvature="0" />
    <path
       d="m 25127,21634 c -2,-5 -33,-78 -67,-162 -43,-106 -59,-159 -54,-175 3,-12 35,-76 69,-142 104,-198 186,-412 216,-567 7,-38 16,-68 20,-68 11,0 87,122 105,170 38,99 17,297 -49,465 -72,181 -229,496 -240,479 z"
       id="path352"
       style="fill:#2ca02c;stroke-width:17.73174286"
       inkscape:connector-curvature="0" />
    <path
       d="m 20600,21135 v -255 h 130 130 v 255 255 h -130 -130 z"
       id="path354"
       style="fill:#2ca02c;stroke-width:17.73174286"
       inkscape:connector-curvature="0" />
    <path
       d="m 13358,20925 c -213,-57 -404,-113 -425,-123 -52,-27 -66,-45 -113,-144 -37,-80 -46,-108 -36,-108 3,0 195,50 427,111 253,66 434,118 451,130 38,27 66,69 87,131 32,94 34,108 14,107 -10,0 -192,-47 -405,-104 z"
       id="path356"
       style="fill:#2ca02c;stroke-width:17.73174286"
       inkscape:connector-curvature="0" />
    <path
       d="m 18249,20873 c -127,-92 -159,-117 -159,-125 0,-4 -4,-8 -10,-8 -11,0 -56,-44 -69,-69 -6,-10 -20,-72 -31,-137 -11,-66 -23,-126 -25,-134 -3,-9 -9,-49 -15,-90 -14,-103 -21,-148 -104,-645 -31,-181 -60,-352 -65,-380 -6,-27 -17,-88 -26,-135 -67,-374 -103,-536 -121,-551 -10,-8 -11,-15 -4,-24 11,-13 8,-33 -36,-220 -16,-68 -38,-135 -51,-155 -30,-45 -29,-50 10,-50 81,0 126,28 217,135 144,169 240,449 301,875 6,36 17,98 27,139 l 17,74 393,103 c 234,61 404,111 420,123 15,11 40,41 54,68 27,49 63,161 55,169 -8,9 -804,-209 -845,-232 l -43,-23 6,27 c 10,46 45,240 60,332 7,47 22,126 33,175 11,50 23,115 27,145 4,30 11,71 15,90 5,19 19,91 30,160 21,125 32,181 51,253 16,61 13,115 -6,137 -10,11 -23,20 -29,20 -6,0 -41,-21 -77,-47 z"
       id="path358"
       style="fill:#2ca02c;stroke-width:17.73174286"
       inkscape:connector-curvature="0" />
    <path
       d="m 25578,20375 c -40,-74 -77,-135 -82,-135 -5,0 -61,29 -125,64 -158,88 -195,91 -230,19 -12,-27 -54,-103 -92,-169 -38,-67 -69,-123 -69,-126 0,-11 159,-118 220,-148 72,-36 161,-63 172,-52 3,4 42,68 85,143 l 78,135 65,-42 c 66,-44 182,-91 233,-96 28,-3 32,4 123,177 51,99 94,185 94,191 0,6 -30,23 -67,38 -38,15 -111,52 -163,82 -67,39 -105,54 -131,54 h -37 z"
       id="path360"
       style="fill:#2ca02c;stroke-width:17.73174286"
       inkscape:connector-curvature="0" />
    <path
       d="m 23935,20013 c -174,-179 -328,-346 -342,-370 -21,-37 -25,-56 -25,-116 1,-65 16,-175 26,-184 2,-2 153,148 336,334 213,217 339,352 351,378 10,22 19,62 19,88 0,53 -27,184 -40,192 -4,3 -151,-142 -325,-322 z"
       id="path362"
       style="fill:#2ca02c;stroke-width:17.73174286"
       inkscape:connector-curvature="0" />
    <path
       d="m 20600,19885 v -255 h 130 130 v 255 255 h -130 -130 z"
       id="path364"
       style="fill:#2ca02c;stroke-width:17.73174286"
       inkscape:connector-curvature="0" />
    <path
       d="m 27361,18946 c -172,-178 -325,-341 -339,-363 -25,-35 -27,-46 -27,-138 0,-106 11,-178 25,-173 4,2 155,153 335,337 218,223 333,347 346,375 11,23 19,64 19,95 0,52 -24,169 -39,184 -4,4 -148,-139 -320,-317 z"
       id="path366"
       style="fill:#2ca02c;stroke-width:17.73174286"
       inkscape:connector-curvature="0" />
    <path
       d="m 18653,19061 c -46,-8 -83,-20 -83,-26 0,-5 -19,-23 -43,-39 -23,-17 -45,-36 -50,-43 -4,-6 -14,-10 -21,-7 -8,3 -19,-4 -26,-16 -7,-12 -36,-53 -65,-91 -83,-108 -126,-207 -133,-306 -5,-81 -4,-83 27,-118 17,-20 31,-40 31,-45 0,-6 5,-10 11,-10 6,0 25,-11 42,-24 42,-31 132,-63 225,-81 41,-8 77,-17 79,-19 6,-5 -24,-97 -42,-133 -34,-66 -314,-197 -510,-239 -99,-21 -311,-23 -415,-5 -90,16 -294,74 -336,95 -16,9 -33,16 -37,16 -9,0 -101,41 -157,69 -19,10 -47,21 -63,25 -23,6 -29,3 -38,-21 -14,-38 -4,-73 42,-139 134,-191 290,-312 491,-383 121,-42 239,-61 340,-54 163,10 355,76 504,173 33,22 64,40 68,40 4,0 27,21 50,46 24,25 54,51 67,58 13,6 26,20 29,31 5,20 26,48 66,89 55,56 172,248 211,346 39,97 69,231 72,320 1,47 4,93 7,103 3,9 1,17 -3,17 -5,0 -15,42 -23,93 -7,50 -16,94 -20,97 -4,3 -19,30 -33,60 -25,53 -52,81 -106,109 -46,25 -77,27 -158,12 z"
       id="path368"
       style="fill:#2ca02c;stroke-width:17.73174286"
       inkscape:connector-curvature="0" />
    <path
       d="m 20600,18635 v -255 h 130 130 v 255 255 h -130 -130 z"
       id="path370"
       style="fill:#2ca02c;stroke-width:17.73174286"
       inkscape:connector-curvature="0" />
    <path
       d="m 15566,18394 c -407,-109 -471,-133 -506,-190 -26,-41 -82,-176 -75,-182 6,-6 823,207 856,224 57,29 111,118 134,222 5,24 3,32 -7,31 -7,0 -188,-47 -402,-105 z"
       id="path372"
       style="fill:#2ca02c;stroke-width:17.73174286"
       inkscape:connector-curvature="0" />
    <path
       d="m 24048,18153 c -10,-2 -18,-10 -18,-16 0,-7 -39,-81 -86,-166 -83,-149 -84,-154 -67,-173 27,-31 131,-102 193,-133 51,-26 154,-65 171,-65 8,0 65,97 149,253 35,67 50,105 46,120 -4,17 -42,41 -158,98 -151,75 -196,91 -230,82 z"
       id="path374"
       style="fill:#2ca02c;stroke-width:17.73174286"
       inkscape:connector-curvature="0" />
    <path
       d="m 20600,17385 v -255 h 130 130 v 255 255 h -130 -130 z"
       id="path376"
       style="fill:#2ca02c;stroke-width:17.73174286"
       inkscape:connector-curvature="0" />
    <path
       d="m 20600,16135 v -255 h 130 130 v 255 255 h -130 -130 z"
       id="path378"
       style="fill:#2ca02c;stroke-width:17.73174286"
       inkscape:connector-curvature="0" />
    <path
       d="m 5390,33943 c -355,-56 -665,-290 -736,-556 -20,-75 -21,-957 -1,-957 8,0 87,21 176,46 89,25 166,44 171,42 5,-2 -22,-43 -60,-93 -97,-126 -101,-141 -107,-377 l -6,-198 h 259 c 143,0 300,5 349,10 238,27 424,117 590,284 193,195 313,465 360,809 5,38 3,47 -9,47 -8,0 -261,-63 -562,-140 -302,-76 -550,-137 -553,-134 -4,4 193,1153 207,1207 4,18 -15,20 -78,10 z"
       id="path380"
       style="fill:#2ca02c;stroke-width:17.73174286"
       inkscape:connector-curvature="0" />
    <path
       d="m 35992,33933 c 14,-52 211,-1203 207,-1208 -3,-2 -251,59 -553,135 -301,77 -554,140 -562,140 -17,0 -15,-26 11,-170 75,-409 307,-742 620,-886 164,-76 291,-94 659,-94 h 259 l -6,198 c -6,236 -10,251 -107,377 -38,50 -65,91 -60,93 5,2 82,-17 171,-42 89,-25 168,-46 176,-46 20,0 19,882 -1,957 -72,272 -404,516 -760,559 -55,6 -59,5 -54,-13 z"
       id="path382"
       style="fill:#2ca02c;stroke-width:17.73174286"
       inkscape:connector-curvature="0" />
    <path
       d="m 4180,32573 c -196,-141 -413,-326 -600,-513 -301,-300 -489,-570 -555,-796 -22,-77 -25,-104 -25,-258 0,-125 4,-186 15,-223 32,-106 120,-198 228,-239 43,-16 77,-19 202,-19 132,1 157,4 207,24 96,37 175,97 243,184 179,226 288,605 340,1184 19,203 32,703 19,703 -5,0 -38,-22 -74,-47 z"
       id="path384"
       style="fill:#2ca02c;stroke-width:17.73174286"
       inkscape:connector-curvature="0" />
    <path
       d="m 37203,32353 c 25,-1059 225,-1654 605,-1804 50,-20 75,-23 207,-24 125,0 159,3 202,19 108,41 196,133 228,239 11,37 15,98 15,223 0,154 -3,181 -26,260 -93,321 -473,774 -994,1185 -111,88 -224,169 -235,169 -5,0 -5,-120 -2,-267 z"
       id="path386"
       style="fill:#2ca02c;stroke-width:17.73174286"
       inkscape:connector-curvature="0" />
    <path
       d="m 5460,31441 c -492,-149 -944,-402 -1254,-701 -201,-195 -324,-379 -389,-585 -25,-81 -47,-206 -47,-271 v -34 h 143 c 409,0 652,53 882,194 365,221 610,627 789,1304 30,116 33,132 18,131 -9,0 -73,-17 -142,-38 z"
       id="path388"
       style="fill:#2ca02c;stroke-width:17.73174286"
       inkscape:connector-curvature="0" />
    <path
       d="m 35876,31348 c 179,-677 424,-1083 789,-1304 231,-141 473,-194 884,-194 h 144 l -7,81 c -24,292 -160,546 -432,809 -263,253 -627,474 -1040,629 -109,41 -336,111 -360,111 -9,0 -3,-37 22,-132 z"
       id="path390"
       style="fill:#2ca02c;stroke-width:17.73174286"
       inkscape:connector-curvature="0" />
    <path
       d="m 2838,30283 c -136,-125 -274,-303 -408,-530 -184,-308 -311,-611 -371,-883 -30,-135 -33,-341 -6,-440 24,-91 87,-214 146,-287 49,-59 208,-196 223,-191 4,2 116,131 248,287 l 240,284 v 909 c 0,499 -2,908 -5,908 -3,0 -33,-26 -67,-57 z"
       id="path392"
       style="fill:#2ca02c;stroke-width:17.73174286"
       inkscape:connector-curvature="0" />
    <path
       d="m 38550,29432 v -909 l 240,-284 c 132,-156 244,-285 248,-287 15,-5 174,132 223,191 59,73 122,196 146,287 27,99 24,305 -6,440 -77,355 -296,813 -551,1155 -83,112 -243,285 -282,306 -17,9 -18,-37 -18,-899 z"
       id="path394"
       style="fill:#2ca02c;stroke-width:17.73174286"
       inkscape:connector-curvature="0" />
    <path
       d="m 4310,29266 c -19,-13 -188,-125 -375,-248 -681,-450 -879,-621 -1088,-938 -200,-303 -258,-555 -160,-687 94,-128 386,-145 629,-38 189,83 417,296 581,540 252,375 430,880 459,1295 4,57 3,100 -2,99 -5,0 -25,-11 -44,-23 z"
       id="path396"
       style="fill:#2ca02c;stroke-width:17.73174286"
       inkscape:connector-curvature="0" />
    <path
       d="m 37104,29190 c 33,-484 263,-1064 575,-1452 128,-160 324,-320 465,-383 109,-48 202,-68 321,-69 234,0 345,78 353,250 8,140 -64,331 -205,544 -195,296 -404,482 -953,850 -260,174 -547,360 -556,360 -4,0 -4,-45 0,-100 z"
       id="path398"
       style="fill:#2ca02c;stroke-width:17.73174286"
       inkscape:connector-curvature="0" />
    <path
       d="m 1517,27799 c -173,-278 -282,-688 -333,-1250 -25,-279 -26,-915 -2,-1010 44,-172 122,-280 278,-386 66,-45 278,-155 287,-150 5,3 64,87 133,187 98,143 126,178 131,164 4,-11 27,-201 50,-424 23,-223 43,-407 45,-408 4,-6 153,37 229,65 391,146 679,415 875,818 136,280 218,585 265,988 9,71 14,132 11,134 -2,2 -280,-201 -617,-451 -338,-251 -616,-456 -619,-456 -3,0 -155,501 -339,1113 -184,611 -337,1118 -341,1126 -5,9 -22,-11 -53,-60 z"
       id="path400"
       style="fill:#2ca02c;stroke-width:17.73174286"
       inkscape:connector-curvature="0" />
    <path
       d="m 39873,27808 c -11,-35 -163,-541 -339,-1125 -175,-585 -321,-1063 -324,-1063 -3,0 -281,205 -619,456 -337,250 -615,453 -617,451 -3,-2 2,-63 11,-134 58,-497 185,-899 378,-1191 79,-120 109,-157 200,-251 144,-148 298,-253 492,-336 93,-39 292,-102 300,-93 1,2 21,185 44,408 23,223 46,413 50,424 5,14 33,-21 131,-164 69,-100 128,-184 133,-187 9,-5 220,105 287,150 157,107 233,212 278,386 24,95 23,731 -2,1010 -51,561 -160,972 -332,1248 -25,40 -47,73 -49,73 -2,0 -12,-28 -22,-62 z"
       id="path402"
       style="fill:#2ca02c;stroke-width:17.73174286"
       inkscape:connector-curvature="0" />
    <path
       d="m 733,25049 c -209,-274 -355,-709 -419,-1249 -25,-207 -25,-536 -1,-654 73,-356 280,-700 540,-897 135,-102 313,-179 454,-195 59,-8 50,-23 76,131 9,50 28,146 44,215 27,122 27,133 28,435 0,291 -1,315 -23,402 -30,119 -113,284 -247,493 -268,417 -365,707 -395,1185 -6,94 -12,174 -14,179 -1,4 -20,-16 -43,-45 z"
       id="path404"
       style="fill:#2ca02c;stroke-width:17.73174286"
       inkscape:connector-curvature="0" />
    <path
       d="m 40680,25070 c -2,-171 -35,-450 -70,-605 -52,-224 -162,-466 -335,-735 -134,-209 -217,-374 -247,-493 -22,-87 -23,-111 -23,-402 1,-302 1,-313 28,-435 16,-69 35,-165 44,-215 26,-154 17,-139 76,-131 141,16 319,93 454,195 260,197 467,541 540,897 14,70 18,133 17,299 -2,474 -105,973 -274,1332 -47,99 -132,237 -184,298 l -25,30 z"
       id="path406"
       style="fill:#2ca02c;stroke-width:17.73174286"
       inkscape:connector-curvature="0" />
    <path
       d="m 2980,24209 c -259,-89 -568,-289 -793,-513 -388,-386 -575,-835 -536,-1290 23,-274 96,-437 230,-511 l 54,-30 h 200 200 l 69,34 c 253,124 472,537 602,1138 68,317 94,572 94,935 0,310 13,283 -120,237 z"
       id="path408"
       style="fill:#2ca02c;stroke-width:17.73174286"
       inkscape:connector-curvature="0" />
    <path
       d="m 38360,23972 c 0,-363 26,-618 94,-935 130,-600 349,-1014 602,-1138 l 68,-34 177,-3 c 196,-4 233,2 306,51 209,139 272,641 133,1058 -83,252 -245,502 -466,723 -226,227 -538,428 -798,516 -50,16 -96,30 -103,30 -10,0 -13,-54 -13,-268 z"
       id="path410"
       style="fill:#2ca02c;stroke-width:17.73174286"
       inkscape:connector-curvature="0" />
    <path
       d="m 0,21593 c 0,-729 40,-1306 120,-1724 157,-823 515,-1310 1100,-1497 151,-48 139,-52 182,55 83,202 113,374 112,648 0,306 -36,512 -149,850 -206,620 -604,1254 -1062,1695 -112,108 -274,240 -294,240 -5,0 -9,-114 -9,-267 z"
       id="path412"
       style="fill:#2ca02c;stroke-width:17.73174286"
       inkscape:connector-curvature="0" />
    <path
       d="m 41361,21800 c -180,-137 -420,-389 -611,-645 -423,-566 -694,-1171 -787,-1760 -21,-136 -24,-491 -5,-605 21,-125 60,-267 100,-363 43,-107 31,-103 182,-55 282,90 521,258 694,488 277,368 425,867 492,1665 15,174 33,1225 23,1309 l -4,29 z"
       id="path414"
       style="fill:#2ca02c;stroke-width:17.73174286"
       inkscape:connector-curvature="0" />
    <path
       d="m 2774,21382 c -62,-193 -173,-393 -466,-837 -330,-502 -447,-728 -518,-997 -43,-164 -53,-275 -48,-545 5,-221 7,-245 31,-328 15,-49 54,-144 87,-210 64,-126 257,-415 277,-415 7,0 60,32 118,71 412,276 700,780 804,1409 28,171 38,304 52,732 l 13,368 -65,425 -64,425 h -95 -95 z"
       id="path416"
       style="fill:#2ca02c;stroke-width:17.73174286"
       inkscape:connector-curvature="0" />
    <path
       d="m 38401,21055 -65,-425 13,-368 c 14,-428 24,-561 52,-732 86,-521 298,-957 608,-1252 85,-81 287,-228 314,-228 20,0 213,289 277,415 33,66 72,161 87,210 24,83 26,107 31,328 5,270 -5,381 -48,545 -71,269 -188,495 -518,997 -293,444 -404,644 -466,837 l -31,98 h -95 -95 z"
       id="path418"
       style="fill:#2ca02c;stroke-width:17.73174286"
       inkscape:connector-curvature="0" />
    <path
       d="m 3173,18592 c -43,-260 -139,-487 -373,-882 -334,-564 -445,-895 -478,-1431 l -7,-115 -1015,928 c -558,511 -1042,952 -1074,981 l -59,52 6,-150 c 22,-499 152,-1085 341,-1549 111,-270 203,-445 344,-651 244,-358 546,-604 867,-709 152,-50 227,-61 420,-61 207,0 260,10 311,62 45,45 56,92 63,263 l 6,145 75,-75 c 45,-45 94,-108 123,-157 68,-117 113,-143 244,-143 94,0 127,15 196,89 172,187 355,682 466,1263 36,190 51,346 51,543 0,305 -32,537 -115,850 -134,502 -136,512 -172,833 l -4,42 h -98 -97 z"
       id="path420"
       style="fill:#2ca02c;stroke-width:17.73174286"
       inkscape:connector-curvature="0" />
    <path
       d="m 38067,18678 c -36,-321 -38,-331 -172,-833 -83,-313 -115,-545 -115,-850 0,-315 48,-615 166,-1029 107,-373 230,-646 351,-777 69,-74 102,-89 196,-89 131,0 176,26 244,143 29,49 78,112 123,157 l 75,75 7,-150 c 9,-208 26,-252 115,-296 46,-23 58,-24 243,-24 209,0 278,10 435,61 495,161 913,631 1211,1360 189,464 319,1050 341,1549 l 6,150 -59,-52 c -32,-29 -516,-470 -1074,-981 l -1015,-928 -12,174 c -35,499 -145,818 -473,1372 -234,396 -330,622 -373,882 l -21,128 h -97 -98 z"
       id="path422"
       style="fill:#2ca02c;stroke-width:17.73174286"
       inkscape:connector-curvature="0" />
    <path
       d="m 4336,15558 c -22,-139 -62,-294 -120,-463 -58,-170 -81,-226 -251,-625 -249,-583 -327,-822 -370,-1125 -19,-130 -19,-320 0,-428 65,-373 345,-792 674,-1009 41,-27 80,-47 87,-46 24,6 179,187 249,293 168,251 283,544 355,905 93,461 99,1019 15,1455 -81,423 -246,797 -445,1009 -64,68 -154,146 -170,146 -4,0 -15,-50 -24,-112 z"
       id="path424"
       style="fill:#2ca02c;stroke-width:17.73174286"
       inkscape:connector-curvature="0" />
    <path
       d="m 37043,15632 c -408,-325 -652,-1109 -613,-1972 30,-646 180,-1159 453,-1549 57,-81 208,-251 223,-251 6,0 45,22 85,49 329,216 609,635 674,1008 19,108 19,298 0,428 -42,301 -123,547 -362,1105 -260,608 -336,828 -379,1108 -9,62 -20,112 -24,112 -5,0 -30,-17 -57,-38 z"
       id="path426"
       style="fill:#2ca02c;stroke-width:17.73174286"
       inkscape:connector-curvature="0" />
    <path
       d="m 1165,14663 c 64,-589 218,-1069 479,-1490 293,-474 730,-846 1243,-1059 199,-83 501,-173 508,-151 2,7 20,66 40,132 50,164 58,243 52,474 -5,213 -18,281 -76,417 -197,461 -746,932 -1686,1444 -206,112 -549,290 -559,290 -4,0 -5,-26 -1,-57 z"
       id="path428"
       style="fill:#2ca02c;stroke-width:17.73174286"
       inkscape:connector-curvature="0" />
    <path
       d="m 40110,14629 c -528,-274 -864,-471 -1169,-687 -466,-330 -758,-643 -892,-956 -58,-136 -71,-204 -76,-417 -6,-231 2,-310 52,-474 20,-66 38,-125 40,-132 4,-14 159,25 320,80 1039,355 1711,1219 1884,2422 28,197 34,255 24,255 -4,0 -87,-41 -183,-91 z"
       id="path430"
       style="fill:#2ca02c;stroke-width:17.73174286"
       inkscape:connector-curvature="0" />
    <path
       d="m 29303,13938 c -25,-28 -593,-889 -618,-937 -34,-67 -55,-145 -55,-205 0,-71 30,-204 54,-240 21,-33 65,-35 93,-3 41,44 620,933 638,977 28,72 30,180 7,294 -12,54 -29,107 -38,117 -23,25 -56,24 -81,-3 z"
       id="path432"
       style="fill:#2ca02c;stroke-width:17.73174286"
       inkscape:connector-curvature="0" />
    <path
       d="m 27067,13779 c -9,-5 -24,-23 -32,-39 -33,-63 -9,-416 32,-493 10,-17 97,-138 194,-267 180,-241 324,-443 583,-819 81,-117 205,-292 275,-390 70,-97 240,-336 377,-531 274,-390 351,-480 487,-564 161,-100 355,-138 531,-105 39,7 80,13 91,14 39,0 198,101 318,200 196,162 302,291 421,513 99,184 198,325 340,482 157,174 268,258 480,365 80,41 148,82 159,97 15,21 22,59 34,199 19,228 15,338 -13,376 -12,15 -33,29 -47,31 -14,2 -95,-15 -179,-37 -295,-77 -409,-94 -986,-146 -328,-30 -431,-52 -571,-121 -272,-134 -387,-401 -337,-783 9,-68 21,-133 28,-145 22,-43 51,-66 84,-66 51,0 72,26 90,110 29,143 88,226 199,276 79,37 555,113 555,89 0,-21 -288,-364 -394,-470 -246,-245 -394,-329 -576,-328 -153,1 -245,49 -407,216 -73,74 -131,149 -210,268 -61,90 -166,243 -234,339 -116,164 -233,335 -814,1188 -126,186 -261,380 -299,431 -83,112 -128,139 -179,110 z"
       id="path434"
       style="fill:#2ca02c;stroke-width:17.73174286"
       inkscape:connector-curvature="0" />
    <path
       d="m 5700,13140 c 0,-266 -6,-334 -47,-495 -38,-152 -102,-320 -253,-660 -230,-518 -285,-688 -310,-955 -18,-196 14,-416 89,-599 17,-41 29,-76 27,-78 -1,-1 -38,9 -82,24 -135,45 -481,228 -914,485 -579,342 -796,461 -1052,579 -434,199 -797,304 -1129,325 l -102,7 35,-64 c 20,-35 80,-145 134,-244 433,-798 707,-1191 1100,-1575 210,-206 316,-288 529,-410 378,-218 826,-345 1151,-326 366,20 619,208 715,529 12,40 23,74 25,76 4,5 134,-39 178,-61 21,-11 61,-40 87,-65 46,-43 53,-46 130,-56 156,-19 254,16 370,134 64,65 86,96 132,191 65,131 99,232 127,369 37,179 42,293 37,749 -4,368 -8,458 -26,586 -78,564 -269,1097 -509,1424 -127,173 -298,317 -419,354 l -23,7 z"
       id="path436"
       style="fill:#2ca02c;stroke-width:17.73174286"
       inkscape:connector-curvature="0" />
    <path
       d="m 35691,13365 c -405,-189 -764,-904 -882,-1759 -18,-128 -22,-218 -26,-586 -5,-456 0,-570 37,-749 28,-137 62,-238 127,-369 46,-95 68,-126 132,-191 116,-118 214,-153 370,-134 77,10 84,13 130,56 26,25 66,54 87,65 44,22 174,66 178,61 2,-2 13,-36 25,-76 96,-322 349,-509 715,-529 325,-19 773,108 1151,326 213,122 319,204 529,410 393,384 667,777 1100,1575 54,99 114,209 134,244 l 35,64 -102,-7 c -332,-21 -695,-126 -1129,-325 -256,-118 -473,-237 -1052,-579 -433,-257 -779,-440 -914,-485 -44,-15 -81,-25 -82,-24 -2,2 10,37 27,78 75,183 107,403 89,599 -25,267 -80,437 -310,955 -151,340 -215,508 -253,660 -41,161 -47,229 -47,494 0,138 -3,251 -7,251 -5,0 -32,-12 -62,-25 z"
       id="path438"
       style="fill:#2ca02c;stroke-width:17.73174286"
       inkscape:connector-curvature="0" />
    <path
       d="m 10730,13308 c -41,-44 -186,-258 -210,-311 -11,-24 -20,-64 -20,-94 v -51 l 123,-144 c 341,-397 432,-512 513,-655 79,-138 93,-225 39,-239 -86,-21 -667,75 -1068,177 -86,22 -169,39 -184,37 -22,-2 -38,-21 -88,-100 -33,-53 -87,-149 -120,-213 l -60,-117 23,-18 c 92,-75 737,-226 1052,-246 110,-7 230,17 298,60 168,106 295,273 420,556 l 47,105 v 120 c -1,112 -3,127 -37,225 -95,276 -235,501 -485,781 -152,170 -185,187 -243,127 z"
       id="path440"
       style="fill:#2ca02c;stroke-width:17.73174286"
       inkscape:connector-curvature="0" />
    <path
       d="m 12373,12898 c -4,-7 -38,-71 -74,-143 -36,-71 -97,-191 -136,-265 -71,-135 -71,-135 -63,-190 5,-30 23,-149 40,-265 39,-251 38,-364 -4,-508 -32,-107 -49,-131 -151,-213 -159,-128 -384,-218 -630,-253 -265,-38 -792,-66 -1070,-58 -178,5 -276,0 -292,-17 -13,-13 13,-40 53,-53 21,-7 145,-47 274,-89 129,-42 347,-119 484,-171 l 250,-96 90,7 c 172,12 378,71 516,148 108,60 257,173 350,267 204,205 350,496 436,866 27,116 28,128 28,410 0,278 -1,295 -27,425 -45,215 -51,233 -74,198 z"
       id="path442"
       style="fill:#2ca02c;stroke-width:17.73174286"
       inkscape:connector-curvature="0" />
    <path
       d="m 14404,12475 c -64,-68 -254,-352 -300,-450 -33,-68 -35,-81 -55,-295 -34,-377 -89,-740 -126,-829 -19,-44 -127,-148 -215,-207 -142,-95 -265,-134 -423,-134 -167,0 -260,39 -392,163 -138,131 -180,249 -149,419 23,123 76,286 147,445 82,187 92,232 53,247 -25,10 -51,-11 -113,-88 -122,-155 -224,-361 -310,-630 -73,-228 -98,-413 -81,-593 22,-238 112,-378 305,-473 238,-119 463,-102 721,52 148,88 320,243 410,368 20,28 37,50 37,50 1,0 2,-75 2,-168 0,-144 3,-178 23,-246 73,-252 248,-440 512,-551 36,-15 83,-38 105,-51 50,-29 193,-70 305,-88 106,-17 252,-6 366,27 l 80,23 -74,-161 c -40,-88 -82,-186 -93,-217 -27,-80 -25,-169 5,-234 65,-140 174,-186 296,-124 80,41 306,236 398,343 l 41,48 76,-63 c 41,-35 101,-79 133,-98 31,-18 75,-45 97,-60 109,-72 367,-141 591,-156 l 97,-7 116,-106 c 297,-272 491,-403 691,-466 155,-49 238,-25 376,107 261,250 419,525 470,818 33,192 7,511 -67,809 -56,225 -195,605 -229,626 -30,19 -96,-67 -187,-242 l -38,-73 h -86 c -187,0 -377,-53 -491,-137 -117,-86 -285,-268 -517,-558 -57,-71 -107,-133 -110,-137 -16,-18 -285,67 -349,110 -15,10 -59,39 -97,64 -161,103 -286,236 -361,383 -54,104 -80,188 -99,309 -22,151 -46,160 -134,51 -66,-82 -176,-183 -252,-234 -125,-84 -248,-107 -398,-77 -103,21 -191,56 -374,147 -228,115 -316,188 -377,313 -38,77 -69,199 -76,296 -9,115 27,416 116,985 79,503 110,755 97,788 -11,30 -40,18 -93,-38 z m 3187,-2791 c 85,-19 155,-65 183,-119 38,-73 24,-322 -19,-339 -46,-17 -210,-18 -317,-2 -175,27 -249,64 -277,139 -6,16 -11,65 -11,109 0,80 0,80 38,115 71,66 184,110 285,112 26,1 79,-6 118,-15 z m -1977,-291 c 86,-70 102,-94 86,-132 -24,-59 -100,-81 -141,-40 -37,37 -69,119 -69,180 0,31 3,58 6,62 10,9 52,-16 118,-70 z m 2505,-123 c 26,-102 42,-186 54,-300 6,-50 -10,-175 -29,-237 -13,-40 -21,-52 -33,-49 -9,3 -54,15 -101,27 -129,33 -215,78 -314,165 -65,57 -85,79 -75,85 8,5 21,9 30,9 33,0 182,82 228,125 51,47 126,151 177,242 15,29 29,51 30,50 2,-1 16,-54 33,-117 z"
       id="path444"
       style="fill:#2ca02c;stroke-width:17.73174286"
       inkscape:connector-curvature="0" />
    <path
       d="m 25422,11869 c -14,-5 -121,-158 -298,-426 -330,-498 -345,-522 -372,-595 -32,-85 -36,-142 -17,-233 30,-143 64,-192 115,-165 25,13 613,892 647,967 33,73 44,159 32,256 -19,150 -55,216 -107,196 z"
       id="path446"
       style="fill:#2ca02c;stroke-width:17.73174286"
       inkscape:connector-curvature="0" />
    <path
       d="m 16163,11733 c -130,-184 -130,-182 -56,-202 75,-20 254,-99 310,-136 53,-35 113,-112 113,-145 0,-24 -100,-70 -184,-84 -48,-9 -150,-11 -316,-8 -196,3 -249,1 -263,-10 -17,-12 -16,-15 15,-44 25,-23 82,-49 223,-99 185,-67 192,-69 290,-69 146,-1 181,18 361,198 124,123 144,149 164,201 20,54 21,66 12,125 -21,124 -116,223 -313,322 -103,52 -183,78 -243,78 -16,0 -44,-32 -113,-127 z"
       id="path448"
       style="fill:#2ca02c;stroke-width:17.73174286"
       inkscape:connector-curvature="0" />
    <path
       d="m 27804,11599 c -62,-14 -144,-69 -185,-123 -21,-27 -50,-85 -65,-130 -25,-77 -27,-95 -35,-341 -6,-214 -11,-275 -28,-345 -58,-230 -183,-372 -440,-500 -115,-58 -183,-83 -281,-106 -62,-15 -252,-45 -256,-41 -2,1 4,29 12,62 8,33 17,132 21,220 9,255 -16,358 -112,459 -26,26 -72,60 -103,74 -175,82 -492,-26 -867,-295 -61,-43 -194,-149 -296,-236 -202,-171 -195,-162 -219,-294 -6,-34 -12,-160 -13,-281 -2,-204 0,-222 17,-241 12,-13 31,-21 52,-21 27,0 51,16 133,85 95,81 102,85 148,85 26,0 125,-16 218,-35 193,-39 245,-53 245,-63 0,-4 -29,-44 -64,-88 -104,-130 -221,-221 -496,-386 -163,-98 -245,-138 -355,-174 -79,-25 -105,-29 -210,-29 -114,0 -123,2 -188,32 -84,40 -165,101 -244,187 -73,78 -123,149 -205,294 -121,214 -226,340 -327,396 -57,30 -121,37 -160,17 -31,-17 -60,-87 -68,-164 -15,-169 87,-666 199,-966 102,-272 101,-420 -1,-488 -84,-56 -150,-49 -240,27 -106,90 -184,217 -297,485 -116,275 -153,327 -212,294 -33,-18 -55,-79 -49,-134 4,-43 154,-400 240,-574 63,-129 202,-341 289,-441 78,-91 187,-182 254,-212 68,-31 177,-30 258,2 80,31 147,97 176,175 20,51 23,80 24,190 0,114 -3,143 -28,230 -45,159 -123,387 -193,558 -90,224 -110,321 -79,392 l 12,30 29,-45 c 169,-265 264,-388 416,-535 226,-219 482,-340 679,-321 90,8 167,35 334,116 170,83 310,185 480,350 178,173 332,359 461,558 43,67 50,73 74,68 14,-3 76,-9 137,-12 262,-16 599,59 844,187 310,163 484,360 531,599 7,36 17,70 23,77 6,6 112,25 236,43 247,35 318,53 400,102 62,37 115,107 126,166 8,40 -7,141 -62,421 -50,252 -105,357 -258,498 -135,124 -288,174 -432,142 z m 247,-575 c 30,-9 68,-25 86,-35 30,-18 93,-93 93,-110 0,-21 -242,-83 -377,-97 l -73,-8 v 40 c 0,82 76,195 143,215 47,14 67,13 128,-5 z m -1827,-766 c -4,-7 -30,-47 -58,-89 -28,-42 -64,-98 -79,-124 -32,-54 -31,-54 -157,-3 -41,16 -86,34 -100,40 -24,9 -24,10 25,40 88,55 279,131 373,147 2,1 0,-5 -4,-11 z"
       id="path450"
       style="fill:#2ca02c;stroke-width:17.73174286"
       inkscape:connector-curvature="0" />
    <path
       d="m 18660,11390 c -366,-37 -693,-74 -727,-83 -135,-35 -203,-86 -307,-227 -50,-67 -58,-100 -26,-100 11,0 321,29 689,65 490,48 687,71 734,85 97,30 188,101 287,225 55,69 65,99 35,101 -11,1 -319,-28 -685,-66 z"
       id="path452"
       style="fill:#2ca02c;stroke-width:17.73174286"
       inkscape:connector-curvature="0" />
    <path
       d="M 8554,10529 C 8358,10176 8232,9992 8006,9730 7890,9595 7579,9284 7425,9149 6779,8581 6045,8117 5440,7892 c -190,-70 -273,-92 -630,-167 -173,-36 -319,-67 -323,-68 -10,-3 443,-523 708,-812 841,-919 1771,-1770 2760,-2526 2053,-1570 4381,-2750 6854,-3474 3846,-1125 7998,-1126 11841,0 3776,1106 7174,3258 9805,6210 301,338 517,586 513,591 -2,2 -162,33 -354,68 -192,36 -411,81 -486,100 -547,140 -1102,422 -1583,802 -196,155 -316,264 -525,473 -384,385 -655,726 -1048,1316 -117,176 -217,320 -221,320 -5,0 -87,-85 -181,-190 -650,-716 -1251,-1286 -1935,-1836 -2115,-1697 -4624,-2820 -7290,-3263 -1558,-259 -3156,-284 -4730,-75 -2667,354 -5215,1396 -7370,3013 -843,632 -1555,1283 -2295,2098 -112,123 -217,238 -235,256 l -32,33 z m 931,-1565 c 2774,-2577 6315,-4116 10075,-4379 756,-52 1584,-52 2340,0 3617,253 7030,1685 9760,4094 268,237 420,380 727,685 155,154 284,278 286,276 2,-3 68,-90 147,-195 587,-778 1193,-1342 1895,-1763 249,-149 678,-348 913,-423 40,-13 71,-26 70,-31 -7,-19 -414,-441 -647,-670 C 31502,3059 26864,995 21910,710 c -722,-41 -1638,-41 -2360,0 -3288,189 -6467,1166 -9275,2851 -1306,783 -2454,1655 -3575,2714 -301,285 -980,976 -980,998 0,3 39,21 88,40 498,200 1121,572 1657,991 476,372 974,861 1253,1233 l 77,101 275,-272 c 151,-150 338,-331 415,-402 z"
       id="path454"
       style="fill:#2ca02c;stroke-width:17.73174286"
       inkscape:connector-curvature="0" />
    <path
       d="m 31940,8145 c -142,-30 -241,-78 -406,-196 -139,-99 -849,-679 -849,-693 0,-17 1816,-2264 1830,-2265 12,-1 668,527 827,665 256,221 371,450 371,734 -1,404 -216,833 -633,1264 -255,263 -475,404 -738,473 -120,31 -303,40 -402,18 z m 367,-563 c 158,-66 334,-220 529,-464 170,-211 284,-397 336,-547 18,-52 23,-88 23,-171 0,-99 -2,-109 -33,-174 -21,-42 -60,-95 -102,-140 -64,-67 -440,-380 -454,-378 -7,1 -1206,1478 -1206,1486 0,7 275,227 365,291 200,144 362,173 542,97 z"
       id="path456"
       style="fill:#2ca02c;stroke-width:17.73174286"
       inkscape:connector-curvature="0" />
    <path
       d="m 9094,7428 c -340,-392 -662,-757 -714,-812 -211,-219 -325,-257 -470,-157 -137,94 -170,220 -101,376 17,39 89,150 140,216 l 21,26 -207,138 -207,137 -28,-33 c -142,-169 -242,-361 -274,-527 -56,-291 80,-568 376,-766 190,-128 388,-166 600,-116 170,41 309,129 495,315 81,81 1284,1453 1372,1566 11,13 -15,40 -177,180 -104,90 -194,165 -198,167 -5,1 -287,-318 -628,-710 z"
       id="path458"
       style="fill:#2ca02c;stroke-width:17.73174286"
       inkscape:connector-curvature="0" />
    <path
       d="M 9715,6319 C 9050,5847 8486,5447 8462,5430 l -44,-31 221,-160 c 122,-89 227,-159 235,-156 7,3 134,94 281,204 147,109 269,198 271,198 2,0 186,-133 409,-295 264,-192 404,-299 400,-308 -18,-47 -206,-654 -203,-656 275,-201 451,-326 454,-323 6,5 883,2900 891,2938 5,25 -10,37 -210,183 -119,86 -221,156 -229,155 -7,0 -557,-387 -1223,-860 z m 856,-393 c -94,-285 -171,-519 -173,-521 -6,-5 -533,384 -533,394 0,11 865,654 871,648 2,-2 -72,-236 -165,-521 z"
       id="path460"
       style="fill:#2ca02c;stroke-width:17.73174286"
       inkscape:connector-curvature="0" />
    <path
       d="m 30269,6919 c -119,-17 -305,-99 -492,-218 -132,-83 -950,-613 -961,-622 -7,-6 1542,-2408 1579,-2447 10,-11 50,11 216,119 112,72 209,137 216,143 9,8 -69,135 -314,511 -179,275 -327,505 -329,510 -4,11 120,92 216,142 50,25 64,28 155,28 93,-1 107,-3 195,-39 52,-22 308,-147 568,-278 260,-131 477,-238 483,-238 18,0 520,333 512,340 -18,16 -679,369 -824,440 -85,42 -192,88 -236,103 -90,30 -242,57 -317,57 h -48 l 65,69 c 80,85 140,185 175,288 22,67 26,96 26,203 0,149 -20,235 -90,376 -135,271 -369,466 -612,510 -86,15 -102,15 -183,3 z m 111,-565 c 43,-13 68,-30 121,-83 76,-76 121,-157 139,-249 23,-117 -18,-209 -138,-304 -98,-78 -570,-390 -583,-386 -6,2 -98,138 -204,302 l -195,299 35,24 c 68,46 511,330 558,357 95,56 174,68 267,40 z"
       id="path462"
       style="fill:#2ca02c;stroke-width:17.73174286"
       inkscape:connector-curvature="0" />
    <path
       d="m 12103,6378 c -54,-89 -1361,-2564 -1355,-2569 17,-17 407,-219 416,-216 5,2 245,446 534,988 288,541 521,975 518,964 -26,-97 -610,-2173 -613,-2181 -2,-7 90,-62 218,-129 214,-113 222,-117 239,-99 10,11 336,395 725,854 389,459 717,844 728,855 11,12 2,-11 -21,-55 -203,-378 -1012,-1904 -1010,-1906 20,-18 423,-223 429,-217 12,14 1371,2574 1367,2578 -5,6 -662,354 -674,357 -6,2 -302,-334 -658,-747 -357,-412 -654,-756 -660,-763 -7,-7 104,420 246,950 142,530 257,971 256,981 -2,13 -103,71 -332,193 -180,95 -332,174 -337,174 -4,0 -11,-6 -16,-12 z"
       id="path464"
       style="fill:#2ca02c;stroke-width:17.73174286"
       inkscape:connector-curvature="0" />
    <path
       d="m 27745,5605 c -132,-63 -241,-120 -242,-127 -4,-19 333,-3047 339,-3054 6,-5 476,210 490,224 4,4 -13,160 -38,346 -25,187 -41,342 -37,346 4,3 209,100 455,214 l 447,208 104,-108 c 57,-60 164,-173 238,-251 74,-79 138,-143 143,-143 17,0 507,233 504,240 -5,12 -2152,2220 -2158,2219 -3,0 -113,-52 -245,-114 z m 690,-1070 c 193,-207 351,-379 353,-384 1,-4 -134,-71 -300,-149 -167,-77 -304,-138 -305,-134 -3,9 -143,1075 -143,1088 0,5 10,-3 23,-18 12,-15 180,-196 372,-403 z"
       id="path466"
       style="fill:#2ca02c;stroke-width:17.73174286"
       inkscape:connector-curvature="0" />
    <path
       d="m 14455,5257 c -20,-49 -1045,-2586 -1065,-2638 l -18,-46 240,-97 c 132,-54 241,-96 243,-94 7,7 1096,2710 1093,2713 -2,1 -110,46 -241,98 l -238,96 z"
       id="path468"
       style="fill:#2ca02c;stroke-width:17.73174286"
       inkscape:connector-curvature="0" />
    <path
       d="m 26070,4899 c -41,-5 -118,-18 -170,-30 -90,-20 -1059,-295 -1067,-302 -2,-2 178,-635 399,-1405 285,-995 405,-1402 415,-1402 27,0 1000,282 1083,315 108,41 191,83 255,129 72,52 181,162 228,231 127,186 194,511 167,812 -27,307 -135,682 -275,963 -241,482 -627,739 -1035,689 z m 131,-529 c 191,-35 353,-204 467,-485 53,-130 123,-368 157,-530 33,-154 44,-356 26,-461 -31,-183 -151,-301 -386,-378 -160,-52 -460,-135 -466,-128 -4,5 -469,1616 -526,1823 -4,13 27,25 159,62 369,104 453,119 569,97 z"
       id="path470"
       style="fill:#2ca02c;stroke-width:17.73174286"
       inkscape:connector-curvature="0" />
    <path
       d="m 14940,3533 c -481,-696 -876,-1268 -877,-1272 -3,-6 503,-153 522,-151 6,0 95,129 199,286 180,271 191,285 215,279 46,-11 936,-266 938,-269 2,-1 10,-157 18,-347 9,-189 19,-347 23,-350 4,-4 125,-40 270,-82 l 262,-74 -1,66 c 0,113 -164,3020 -170,3026 -4,4 -521,157 -524,155 0,-1 -394,-571 -875,-1267 z m 960,-45 c 10,-298 16,-545 14,-547 -4,-4 -611,167 -632,178 -9,5 80,146 290,463 167,251 304,455 306,453 2,-2 12,-248 22,-547 z"
       id="path472"
       style="fill:#2ca02c;stroke-width:17.73174286"
       inkscape:connector-curvature="0" />
    <path
       d="m 24173,4426 -363,-71 v -51 c 0,-66 -59,-1899 -62,-1939 -2,-21 -113,218 -412,890 -224,506 -410,921 -411,923 -2,2 -172,-29 -379,-69 -329,-64 -376,-75 -376,-91 0,-20 549,-2850 554,-2855 1,-2 109,18 239,43 227,44 237,47 232,68 -11,41 -423,2171 -422,2173 1,1 205,-469 452,-1044 248,-575 455,-1047 461,-1050 12,-5 473,83 482,91 3,3 17,512 31,1130 15,619 29,1127 32,1130 2,3 99,-480 213,-1072 115,-592 213,-1081 217,-1086 8,-9 447,71 462,84 5,4 -116,652 -269,1439 -262,1348 -280,1431 -299,1430 -11,-1 -183,-33 -382,-73 z"
       id="path474"
       style="fill:#2ca02c;stroke-width:17.73174286"
       inkscape:connector-curvature="0" />
    <path
       d="m 18025,4288 c -6,-20 -406,-2880 -403,-2883 5,-4 511,-75 513,-72 1,1 41,283 89,627 48,344 89,627 92,629 2,2 224,-27 492,-65 l 488,-69 -89,-629 c -48,-346 -86,-630 -85,-632 4,-4 511,-75 513,-71 5,10 405,2890 401,2894 -6,6 -507,76 -510,71 -1,-1 -37,-255 -80,-563 -43,-308 -80,-562 -82,-564 -3,-4 -976,128 -980,133 -1,0 35,254 78,564 44,310 78,566 75,569 -5,5 -457,72 -490,73 -10,0 -19,-6 -22,-12 z"
       id="path476"
       style="fill:#2ca02c;stroke-width:17.73174286"
       inkscape:connector-curvature="0" />
    <path
       d="m 20973,4081 c -89,-4 -164,-8 -166,-11 -7,-7 -889,-2951 -885,-2955 4,-4 542,16 546,20 2,2 44,151 94,332 50,180 92,329 94,331 1,2 226,11 501,21 334,12 500,15 505,8 3,-6 59,-154 125,-329 l 118,-320 95,6 c 52,3 180,8 283,12 103,3 187,10 185,15 -2,5 -253,655 -558,1444 l -555,1435 -110,-2 c -60,-1 -183,-4 -272,-7 z m 317,-1234 c 101,-279 181,-509 179,-511 -5,-6 -659,-29 -664,-24 -2,2 62,241 142,531 81,290 150,524 154,520 3,-5 89,-236 189,-516 z"
       id="path478"
       style="fill:#2ca02c;stroke-width:17.73174286"
       inkscape:connector-curvature="0" />
    <path
       d="m 30196,10547 c -30,-22 -92,-446 -84,-572 3,-48 5,-51 48,-72 89,-44 220,-66 400,-67 141,-1 170,2 202,17 38,19 72,60 71,87 -1,8 7,74 17,145 37,264 37,362 0,407 -17,22 -22,22 -211,20 -179,-3 -202,-1 -297,23 -120,29 -122,29 -146,12 z"
       id="path480"
       style="fill:#2ca02c;stroke-width:17.73174286"
       inkscape:connector-curvature="0" />
  </g>
</svg>
